PathFileType	4	(X/Y/Z)	C:/Users/beibeiliu/ov580/test_trc/User2\sequence.12_training_dense_right.trc
DataRate	CameraRate	NumFrames	NumMarkers	Units	OrigDataRate	OrigDataStartFrame	OrigNumFrames
120	120	24	19	mm	120	1	446
Frame#	Time	ThumbCMC			ThumbMCP			ThumbIP			ThumbTip			IndexMCP			IndexPIP			IndexTip			MiddleMCP			MiddlePIP			MiddleTip			RingMCP			RingPIP			RingTip			PinkyMCP			PinkyPIP			PinkyTip			BackHand1			BackHand2			BackHand3	
		X0	Y0	Z0	X1	Y1	Z1	X2	Y2	Z2	X3	Y3	Z3	X4	Y4	Z4	X5	Y5	Z5	X6	Y6	Z6	X7	Y7	Z7	X8	Y8	Z8	X9	Y9	Z9	X10	Y10	Z10	X11	Y11	Z11	X12	Y12	Z12	X13	Y13	Z13	X14	Y14	Z14	X15	Y15	Z15	X16	Y16	Z16	X17	Y17	Z17	X18	Y18	Z18	
0	0	51.5522	-26.0772	124.002	19.1872	-32.3364	112.109	-6.94657	-40.4011	90.5412	-23.6071	-48.8835	74.8201	49.9976	-10.8777	40.8939	38.3721	-10.004	12.0217	28.0586	-7.60245	-9.26718	81.7005	-13.9225	27.5123	75.3557	-13.8429	-3.11643	76.5107	-15.1896	-35.2202	103.274	-25.9221	29.0046	104.759	-26.6339	1.80763	107.746	-25.8544	-27.0134	123.85	-42.776	42.2349	133.107	-46.8529	18.8838	142.896	-45.8531	-0.155748	109.607	-19.2467	83.2674	116.836	-11.685	116.418	80.2985	-6.30289	106.027	
1	0.00833333	47.8194	-25.5326	119.611	22.9859	-33.4187	111.612	-6.23538	-40.4302	88.6313	-26.1127	-48.9796	78.1937	49.3137	-11.6031	40.6646	36.055	-8.21374	13.1939	29.8534	-8.10347	-14.0002	77.5618	-13.7131	28.5512	73.6466	-13.7946	-7.3609	75.2676	-14.5354	-37.3343	100.471	-24.8491	26.5792	108.294	-28.1187	4.38988	105.678	-25.6688	-26.9863	122.366	-43.0712	42.5401	132.871	-46.5581	17.2772	138.832	-45.0309	-5.51135	108.678	-19.8758	83.081	116.305	-12.907	115.588	78.7401	-5.32099	102.643	
2	0.0166667	48.1093	-25.0353	124.786	22.3074	-33.2948	108.987	-7.505	-39.665	89.9788	-23.9526	-48.0847	75.5479	49.3808	-11.4724	39.81	36.2002	-8.78125	16.6824	31.2176	-8.2921	-11.265	76.8388	-13.1039	23.2161	73.1272	-13.4588	-7.1056	75.0525	-14.7836	-39.0615	103.01	-25.4872	27.6794	103.937	-26.9204	4.12412	105.67	-26.7726	-26.3204	122.534	-41.5619	40.8866	131.566	-47.6318	19.1476	137.814	-45.41	-2.01735	109.198	-19.6878	81.4455	118.737	-12.5764	111.838	80.9711	-5.08044	103.33	
3	0.025	46.3482	-24.562	122.126	20.7819	-32.3664	112.277	-7.35274	-39.3366	88.3361	-26.5042	-48.1553	75.4287	47.7839	-10.999	42.2045	35.0619	-8.48332	12.4918	31.6641	-8.15997	-13.1884	80.8955	-13.8316	24.9038	76.758	-14.284	-8.62703	77.1334	-16.2875	-37.6145	101.484	-23.9487	26.0813	105.262	-26.0666	0.0969944	104.037	-26.6494	-27.1366	122.062	-41.8226	42.044	129.672	-47.4104	20.6783	139.876	-45.445	-5.60419	106.732	-17.3575	81.6549	117.444	-14.23	114.809	76.4532	-5.37117	100.594	
4	0.0333333	45.3305	-23.6032	121.08	21.7979	-32.4769	110.737	-6.99999	-38.9414	89.8285	-25.7182	-48.1878	74.3863	48.3226	-10.3041	38.253	35.7058	-7.8951	15.7664	31.6611	-8.79846	-12.3318	76.8398	-12.6447	28.8867	74.6289	-14.1346	-8.28733	74.3451	-14.9268	-35.6865	100.628	-25.4573	30.8433	102.078	-25.8308	-0.525716	104.181	-25.3151	-28.3872	123.021	-42.9717	44.6491	131.198	-45.8836	16.1274	139.396	-46.4177	-6.48949	107.848	-18.3333	84.666	120.591	-12.8631	113.917	82.453	-6.42152	103.274	
5	0.0416667	45.6757	-24.4	120.042	23.4199	-33.3136	109.512	-3.67762	-40.5038	92.9555	-23.3637	-48.5596	77.174	45.8687	-10.6458	40.7111	38.8476	-8.97237	12.3288	25.2572	-6.44085	-13.12	79.3256	-13.3687	28.4025	77.674	-14.1199	-4.87443	74.0691	-15.2388	-33.8701	99.8306	-24.5042	27.5044	105.4	-26.2855	3.0028	102.111	-26.0976	-24.2861	124.951	-42.6876	41.4833	128.784	-45.7799	19.5101	141.505	-44.8692	-6.54132	111.344	-20.0513	81.4327	117.223	-13.5062	111.976	81.3673	-6.42777	99.6902	
6	0.05	47.5337	-26.1278	120.657	20.1367	-32.5504	112.399	-9.32612	-39.5741	92.5243	-27.205	-49.2503	79.4124	46.6701	-11.1865	40.4562	33.5631	-8.04716	13.9308	30.2686	-8.37475	-13.2243	76.1014	-12.5324	27.8787	74.6822	-14.3226	-4.42078	73.9154	-16.0505	-35.6207	103.522	-25.3845	27.8342	105.949	-27.1495	3.08123	105.354	-26.735	-23.8197	121.528	-42.6446	44.0558	132.543	-47.9349	18.0581	140.85	-46.1614	-6.78795	108.155	-18.1735	85.0689	114.885	-13.3735	115.025	78.6613	-6.91165	101.255	
7	0.0583333	47.5319	-25.8217	125.512	20.2501	-32.6023	112.326	-7.70109	-40.0549	93.1657	-27.3718	-48.438	77.867	44.6916	-9.91394	41.0441	35.7363	-9.37749	11.5409	27.1581	-7.53419	-14.6869	77.6158	-13.5574	26.0273	74.4138	-14.4663	-5.75307	76.0661	-16.1716	-39.6794	103.676	-26.3868	27.2053	106.6	-27.4906	1.90027	102.341	-25.4929	-23.5596	121.606	-42.394	45.4227	128.593	-46.8202	21.049	140.622	-44.9827	-3.31907	106.907	-16.9685	81.0164	116.191	-12.592	116.767	77.2873	-5.36381	104.895	
8	0.0666667	49.0755	-26.5442	120.302	20.7848	-33.4043	113.227	-4.88495	-40.9322	94.7967	-25.9083	-49.6965	80.4886	46.1283	-10.2983	39.5653	34.7974	-7.98319	14.0451	29.1065	-8.63307	-10.2177	78.5043	-12.6152	27.5502	74.8154	-13.9065	-7.68153	73.4397	-14.8349	-32.9419	100.595	-24.0673	31.3975	102.823	-26.1721	4.76078	103.448	-24.4015	-26.5932	123.021	-41.9567	43.3531	127.568	-46.2021	17.7182	139.86	-46.7674	-1.34602	111.723	-17.8801	81.9148	119.239	-14.2685	113.197	81.3789	-7.02718	105.428	
9	0.075	48.8404	-24.778	125.956	20.6345	-34.1429	113.119	-5.86201	-40.916	95.8143	-26.2424	-49.3146	78.9818	47.8305	-7.77901	39.6334	33.2455	-7.0021	18.2221	25.3737	-9.15728	-12.2338	74.7772	-8.38387	25.866	73.2074	-10.8501	-7.00328	70.7971	-11.0314	-33.1915	100.906	-22.2137	30.9147	100.536	-23.3889	4.41051	99.7904	-21.9649	-25.1386	124.248	-41.2666	42.3183	127.412	-44.2957	17.4451	134.269	-41.1681	-4.43297	107.243	-18.4629	85.33	119.464	-15.1781	112.04	84.5519	-4.84118	106.174	
10	0.0833333	51.0795	-23.6144	122.359	18.8915	-32.2978	111.992	-8.20559	-41.8648	94.7652	-24.1985	-51.3466	76.0755	46.6205	-3.57524	44.5903	30.7494	-4.2113	14.796	26.8424	-9.62718	-10.2186	76.5925	-5.7134	26.8884	74.8783	-6.43417	-3.16487	70.2732	-8.08041	-33.524	101.405	-18.3609	26.9543	100.678	-18.61	3.1884	98.2072	-17.1096	-25.2039	123.312	-39.1842	40.7243	125.063	-40.6598	15.8018	133.153	-36.918	-9.36588	108.702	-16.2689	86.7097	120.826	-12.9154	115.937	84.46	-5.09711	107.531	
11	0.0916667	51.5035	-23.3714	126.908	25.0864	-33.2565	110.984	-5.99431	-42.6061	88.6894	-22.5187	-52.5713	70.4501	44.1565	0.670625	43.3164	32.4309	-2.68095	14.5849	21.9816	-14.7014	-10.7934	74.2452	-0.410443	31.2217	71.584	-0.706173	-3.94932	64.8125	-1.50585	-32.9029	100.283	-12.9245	27.9343	100.378	-13.801	3.03401	94.9497	-10.9311	-27.4412	118.02	-32.1675	36.3347	124.774	-35.3145	11.4991	131.293	-34.0009	-10.1723	110.175	-13.562	81.1438	120.708	-12.7918	114.342	80.9533	-1.23225	105.58	
12	0.1	49.3275	-22.205	126.074	24.4693	-34.2303	108.85	-0.332962	-45.3187	88.4396	-13.7433	-54.9012	66.0528	42.9747	4.42887	41.3978	32.3204	-4.38842	14.5496	20.374	-20.7175	-3.68355	73.2335	5.39473	27.2555	71.4925	2.08386	-6.17951	65.4981	0.117243	-33.3975	98.152	-8.28285	26.8904	99.8012	-8.97009	-0.65408	91.6043	-4.478	-26.6864	119.82	-28.6846	36.2085	120.975	-30.1994	11.5011	125.222	-28.1947	-12.3889	109.8	-9.02683	83.2516	120.646	-12.6004	113.601	83.7842	2.02048	109.943	
13	0.108333	52.9053	-22.0705	119.65	25.1396	-35.7528	103.36	5.54477	-46.007	78.126	-3.78142	-57.2512	55.9364	47.8472	3.88672	41.4312	34.2677	-7.98766	13.5551	22.4776	-35.9904	-2.30071	79.3319	7.07147	30.0058	72.4738	6.7684	-2.86842	65.2425	2.88545	-36.6803	100.877	-4.9893	24.7777	94.3909	-2.94093	1.74336	92.9037	-1.8198	-24.4939	120.971	-26.2648	37.985	121.798	-26.8637	8.28772	122.084	-23.4489	-11.4722	110.797	-7.92535	85.6561	121.472	-10.1995	112.001	84.0614	4.30407	110.05	
14	0.116667	51.2984	-22.151	117.625	23.8532	-36.8628	100.619	8.91893	-47.2278	70.7705	5.63109	-56.3597	40.8919	45.0742	4.37279	36.5932	34.8977	-15.0738	12.3205	25.2612	-42.6078	5.1873	75.0505	9.8198	27.9615	73.0721	7.66596	-3.49301	64.0682	3.78066	-36.3336	102.048	-3.78345	25.0893	97.4869	-1.12406	-3.43895	91.0892	0.964786	-30.4643	119.305	-24.1751	36.295	124.091	-25.255	10.6767	124.165	-20.31	-16.287	113.876	-8.00789	82.2604	120.742	-9.16798	113.754	83.8849	3.7136	105.128	
15	0.125	50.055	-20.937	115.316	27.3102	-37.0711	94.9363	11.1473	-48.1945	65.7233	11.9987	-57.25	38.7857	44.9282	3.52662	35.7834	32.4727	-19.0166	13.5925	25.9506	-48.7613	10.4773	75.9255	10.7484	24.0228	67.5368	9.62443	-7.98697	61.8092	5.37455	-35.7595	98.037	0.00379998	23.6204	101.208	-0.911179	-1.12346	93.6367	1.25689	-31.0778	120.305	-22.3978	33.9009	122.936	-23.5952	8.29901	123.872	-18.574	-16.4248	116.172	-6.55787	81.6275	124.46	-8.71162	109.213	85.7617	3.53035	106.917	
16	0.133333	54.424	-21.6104	113.534	26.9894	-36.4655	91.7306	15.68	-47.0122	59.0408	16.1343	-56.8455	33.3035	44.8511	2.45018	33.8122	31.5005	-19.7301	14.8384	30.5354	-54.4194	13.7114	76.4484	12.3746	26.1855	68.5612	10.1598	-6.56911	65.6739	3.1303	-37.1431	99.5629	-0.270915	26.6679	97.8622	1.08987	-5.09676	91.2453	3.12942	-33.3372	121.205	-22.1273	34.8907	121.075	-21.4161	3.86074	123.16	-17.0608	-19.8202	115.174	-5.22713	81.3866	125.865	-8.81505	111.254	87.7623	3.60432	106.048	
17	0.141667	51.9956	-18.2208	112.578	29.8359	-34.3137	88.7251	12.3472	-46.6982	62.6887	14.0044	-55.7455	36.3119	47.7294	1.99972	31.8894	34.5052	-20.8818	13.7417	30.3382	-52.3111	16.5499	78.6982	10.9061	21.317	69.8409	8.89264	-11.4162	60.4869	4.55084	-39.1761	98.9648	0.85589	22.5783	99.439	-0.170958	-8.47395	89.8285	2.1178	-32.1925	119.222	-20.7836	30.2765	121.775	-22.2021	2.44821	127.101	-19.6019	-18.6826	117.013	-5.9963	79.0932	126.865	-9.47744	111.469	86.4056	5.59429	105.379	
18	0.15	51.8061	-13.7824	118.092	27.1924	-28.0511	91.8576	8.82836	-41.1851	66.5988	8.68928	-51.38	37.5749	46.0541	5.18576	35.6131	32.6748	-16.7017	16.1194	27.7044	-53.3046	19.7975	76.9477	12.0322	20.6999	71.9688	7.45646	-7.98375	63.2444	0.425308	-41.0518	103.809	-4.72928	24.2289	98.9804	-2.23637	-3.62071	89.7511	-1.60835	-33.686	118.384	-25.6726	33.8232	119.398	-25.6297	2.35703	122.882	-26.0434	-17.4179	113.419	-6.13579	77.7112	123.481	-11.0773	108.928	91.2211	7.02613	102.705	
19	0.158333	53.097	-5.3306	115.842	28.2893	-17.909	93.7453	8.87709	-29.9263	70.9929	3.46783	-42.3947	43.563	49.1197	7.28048	37.357	29.1141	-13.9269	18.5469	17.64	-43.537	25.9321	82.5991	6.78266	18.8444	71.3452	4.42202	-11.1841	59.7868	-1.59757	-41.4329	101.604	-8.60257	19.6328	95.607	-6.88112	-5.97834	87.5579	-8.26997	-36.3303	113.14	-32.0187	35.1595	115.583	-34.5209	6.24636	115.298	-30.9053	-20.52	113.385	-9.14961	74.8722	126.242	-12.8352	104.612	95.681	7.50641	102.604	
20	0.166667	57.6737	2.00389	113.313	28.0264	-5.20182	99.8408	0.740598	-14.6393	74.7227	0.289871	-29.9501	50.0442	52.6361	6.7051	33.3694	25.5381	-8.31607	20.8753	10.3692	-35.4934	32.9639	81.8178	4.43183	22.022	72.3519	0.098961	-9.75048	54.853	-5.10513	-41.7267	97.9863	-15.879	20.29	91.7646	-16.8939	-7.53364	85.8722	-21.6018	-32.8622	109.573	-43.3586	34.5512	107.835	-47.7601	9.48719	107.745	-48.9845	-17.1268	117.39	-19.5053	77.1952	128.51	-19.3589	105.795	94.7744	10.6049	96.36	
21	0.175	61.1192	14.6163	111.764	29.8273	8.44885	96.4356	-0.167246	4.14983	76.4269	-8.96123	-12.646	57.2726	51.1951	8.73083	29.8096	25.1395	-0.703616	20.8639	0.80143	-24.1182	40.6724	81.0278	-4.02563	17.6942	65.6946	-5.70677	-13.3094	51.0133	-14.3936	-40.1732	92.5909	-28.6282	20.2065	85.2567	-31.0482	-2.54992	75.4653	-34.7563	-30.5514	95.5395	-52.7436	35.9045	89.3005	-57.9234	12.0299	87.5754	-61.7429	-12.1216	110.26	-22.7481	78.5202	122.963	-25.6744	105.978	103.161	5.86175	95.0202	
22	0.183333	69.0822	22.7329	107.7	36.7211	24.1669	97.5379	5.43041	21.6982	73.7828	-8.68034	4.24944	57.6183	53.6442	9.13527	27.0726	22.615	1.81803	22.1629	-1.76417	-8.96032	41.4786	78.2324	-15.2745	20.4111	62.1677	-18.8127	-11.0835	41.4818	-23.4513	-39.2434	82.3867	-39.4182	27.4108	73.0749	-42.0277	-0.14512	60.057	-48.4595	-26.5077	77.8505	-57.1375	41.5545	70.1329	-69.1796	20.9078	65.7038	-70.8796	-4.95379	103.101	-30.5943	74.4453	116.938	-30.3895	108.601	103.746	2.27249	88.4991	
23	0.191667	79.1287	30.0153	104.071	45.8723	36.9605	91.2649	16.9689	36.6845	73.9841	-6.30476	24.3329	56.9318	58.6846	4.7807	27.4208	23.6522	9.30674	19.5972	-1.13416	5.26835	40.0724	73.166	-18.3435	20.0712	54.0674	-24.3812	-9.89282	34.71	-27.2472	-33.8815	69.9605	-44.481	29.0356	58.1718	-52.9107	1.73158	42.2159	-52.044	-24.3435	62.3977	-61.6125	48.5033	52.2794	-68.1528	30.4693	42.0426	-79.1185	6.37648	93.6517	-38.4794	76.6235	112.67	-37.2173	108.203	108.008	-2.94324	88.5088	
